<?xml version="1.0"?>
<svg xmlns="http://www.w3.org/2000/svg" height="512px" viewBox="0 -28 471.50008 471" width="512px" class=""><g><path d="m142.5 232.25v-187c-.003906-3.371094.421875-6.734375 1.261719-10h-1.261719c-22.089844 0-40 17.910156-40 40v157zm0 0" fill="#d4e1f4" data-original="#D4E1F4" class=""/><path d="m182.5 375.25c-22.089844 0-40-17.910156-40-40l-.25-29h-39.75v59c0 22.089844 17.910156 40 40 40h280c18.242188-.003906 34.171875-12.339844 38.738281-30zm0 0" fill="#d4e1f4" data-original="#D4E1F4" class=""/><path d="m208 278.25h-190c-4.96875 0-9-4.03125-9-9s4.03125-9 9-9h190c4.96875 0 9 4.03125 9 9s-4.03125 9-9 9zm0 0" fill="#1ae5be" data-original="#1AE5BE" class="" style="fill:#1AE5BE"/><path d="m56 325.25c-2.386719.003906-4.679688-.945312-6.363281-2.636719l-47-47c-3.515625-3.515625-3.515625-9.210937 0-12.726562l47-47c3.515625-3.515625 9.210937-3.515625 12.726562 0s3.515625 9.210937 0 12.726562l-40.636719 40.636719 40.636719 40.636719c2.574219 2.574219 3.34375 6.445312 1.953125 9.808593-1.394531 3.363282-4.675781 5.554688-8.316406 5.554688zm0 0" fill="#1ae5be" data-original="#1AE5BE" class="" style="fill:#1AE5BE"/><path d="m422.5 26.25h-44.5v-17c0-4.96875-4.03125-9-9-9s-9 4.03125-9 9v17h-152v-17c0-4.96875-4.03125-9-9-9s-9 4.03125-9 9v17h-47.5c-27.050781.03125-48.96875 21.949219-49 49v150c0 4.96875 4.03125 9 9 9s9-4.03125 9-9v-59h342v199c-.019531 17.113281-13.886719 30.980469-31 31h-280c-17.113281-.019531-30.980469-13.886719-31-31v-52c0-4.96875-4.03125-9-9-9s-9 4.03125-9 9v52c.03125 27.050781 21.949219 48.96875 49 49h280c27.050781-.03125 48.96875-21.949219 49-49v-290c-.03125-27.050781-21.949219-48.96875-49-49zm-311 122v-73c.019531-17.113281 13.886719-30.980469 31-31h47.5v24.4375c-13.554688 4.425781-21.878906 18.042969-19.640625 32.125 2.242187 14.078125 14.382813 24.441406 28.640625 24.441406s26.398438-10.363281 28.640625-24.441406c2.238281-14.082031-6.085937-27.699219-19.640625-32.125v-24.4375h152v24.4375c-13.554688 4.425781-21.878906 18.042969-19.640625 32.125 2.242187 14.078125 14.382813 24.441406 28.640625 24.441406s26.398438-10.363281 28.640625-24.441406c2.238281-14.082031-6.085937-27.699219-19.640625-32.125v-24.4375h44.5c17.113281.019531 30.980469 13.886719 31 31v73zm87.5-63c6.074219 0 11 4.925781 11 11s-4.925781 11-11 11-11-4.925781-11-11c.007812-6.070312 4.929688-10.992188 11-11zm170 0c6.074219 0 11 4.925781 11 11s-4.925781 11-11 11-11-4.925781-11-11c.007812-6.070312 4.929688-10.992188 11-11zm0 0" fill="#0635c9" data-original="#0635C9" class="active-path" style="fill:#008AE2" data-old_color="#0635c9"/></g> </svg>
