<svg xmlns="http://www.w3.org/2000/svg" viewBox="0 0 91.265 91.279">
  <defs>
    <style>
      .cls-1 {
        fill: #043164;
      }
    </style>
  </defs>
  <g id="Group_87" data-name="Group 87" transform="translate(-637.454 -762.956)">
    <path id="Path_62" data-name="Path 62" class="cls-1" d="M715.048,848.3c-1.178,1.254-2.293,2.446-3.412,3.634-2.872,3.049-6.272,3.064-9.126.04-1.121-1.189-2.233-2.387-3.433-3.67-1.149,1.221-2.26,2.4-3.365,3.58-2.923,3.129-6.319,3.132-9.269,0-1.092-1.16-2.178-2.327-3.342-3.572-1.184,1.268-2.293,2.46-3.406,3.648-2.834,3.026-6.3,3.022-9.131-.006-1.118-1.193-2.239-2.383-3.427-3.648-1.191,1.27-2.348,2.509-3.511,3.743-2.726,2.893-6.193,2.905-8.92.029-1.169-1.233-2.326-2.477-3.547-3.778-1.3,1.395-2.53,2.751-3.8,4.066a5.656,5.656,0,0,1-9.612-2.277,8.374,8.374,0,0,1-.248-2.277c-.012-12.863-.108-25.726.024-38.587.182-17.843,8.007-31.485,23.421-40.414,18.412-10.665,42.463-6.376,56.367,9.669a45.317,45.317,0,0,1,11.4,30.544q.025,19.543,0,39.088c0,3.4-2.112,5.827-5.268,6.058a5.564,5.564,0,0,1-4.664-1.872C717.57,851.007,716.362,849.714,715.048,848.3Zm-63.89-8.3,8,8.541L667.128,840l8.006,8.537L683.107,840l7.967,8.539L699.082,840l7.972,8.54,8-8.541,7.922,8.477c.029-.424.058-.643.058-.861,0-13.3.036-26.6-.03-39.893a37.573,37.573,0,0,0-4.915-18.38C707,769.528,682.41,762.665,662.88,774.239c-12.6,7.465-19.279,18.867-19.625,33.536-.313,13.257-.074,26.527-.075,39.791,0,.242.047.484.087.884Z"/>
    <path id="Path_63" data-name="Path 63" class="cls-1" d="M695.925,811.416a7.108,7.108,0,1,1,7.108-7.135A7.082,7.082,0,0,1,695.925,811.416Z"/>
    <path id="Path_64" data-name="Path 64" class="cls-1" d="M670.306,811.417a7.105,7.105,0,1,1,7.065-7.078A7.066,7.066,0,0,1,670.306,811.417Z"/>
  </g>
</svg>
