<?xml version="1.0"?>
<svg xmlns="http://www.w3.org/2000/svg" xmlns:xlink="http://www.w3.org/1999/xlink" version="1.1" id="Capa_1" x="0px" y="0px" width="512px" height="512px" viewBox="0 0 92.875 92.876" style="enable-background:new 0 0 92.875 92.876;" xml:space="preserve" class=""><g><g>
	<path d="M58.53,15.238V0H12.807L1.145,12.185v65.454h33.201v15.237h57.385V15.238H58.53z M34.346,72.014H6.77V14.445l8.439-8.818   h37.695v9.611H34.346v1.406H10.991v4.404h23.355v6.701c-0.59,0.301-1.164,0.633-1.723,0.992H10.991v4.402h16.73   c-2.014,2.504-3.389,5.414-4.037,8.537H10.991v4.404h12.264c0.027,2.791,0.617,5.488,1.705,7.973H10.991v4.404h16.613   c0.498,0.631,1.021,1.244,1.598,1.818c1.529,1.531,3.27,2.773,5.145,3.729L34.346,72.014L34.346,72.014z M74.729,73.009   c1.078,1.076,1.078,2.822,0,3.897c-1.076,1.076-2.82,1.076-3.898,0c0,0-17.998-18.026-18.062-18.104   c-6.186,4.35-14.803,3.776-20.33-1.75c-6.186-6.188-6.186-16.253,0-22.437c6.188-6.186,16.252-6.186,22.436,0   c5.529,5.525,6.121,14.133,1.771,20.32C56.723,55,74.729,73.009,74.729,73.009z M86.106,87.251H39.973V65.898   c1.18,0.211,2.385,0.332,3.607,0.332c2.91,0,5.734-0.605,8.336-1.771l4.838,4.838H44.192v4.404h16.967l6.437,6.438   c1.37,1.371,3.192,2.125,5.133,2.125c1.938,0,3.762-0.754,5.131-2.125c1.748-1.748,2.414-4.172,2.002-6.438h2.027v-4.404h-4.607   l-7.971-7.973h12.578V56.92H64.905l-2.721-2.723c0.842-1.871,1.381-3.832,1.627-5.813h18.076V43.98h-18.01   c-0.25-2.668-1.025-5.285-2.314-7.693h20.324v-4.402H58.375c-0.125-0.133-0.242-0.273-0.371-0.402   c-3.842-3.842-8.957-5.959-14.399-5.959c-1.232,0-2.445,0.123-3.631,0.336v-4.994h46.133L86.106,87.251L86.106,87.251z" data-original="#000000" class="active-path" data-old_color="#000000" fill="#2397D4"/>
</g></g> </svg>
